<?xml version="1.0" encoding="UTF-8"?>
<svg xmlns="http://www.w3.org/2000/svg" xmlns:xlink="http://www.w3.org/1999/xlink" width="841.8898pt" height="595.2756pt" viewBox="0 0 841.8898 595.2756">
<path fill-rule="evenodd" fill="rgb(0%, 0%, 0%)" fill-opacity="1" d="M 453.292969 389.984375 C 444.683594 389.984375 435.796875 388.710938 430.242188 381.199219 C 422.910156 371.117188 422.863281 361.847656 423.140625 349.265625 L 423.140625 336.246094 L 426.167969 336.246094 C 445.792969 336.289062 436.90625 336.289062 445.792969 336.289062 C 491.066406 336.289062 482.179688 389.984375 453.292969 389.984375 Z M 396.078125 300.585938 L 396.078125 363.632812 C 396.078125 402.308594 436.90625 429.511719 472.179688 413.503906 C 484.957031 407.835938 493.566406 399.191406 499.398438 387.152344 C 506.898438 372.273438 507.175781 355.839844 499.953125 340.679688 C 494.398438 329.488281 484.957031 319.285156 473.570312 314.1875 C 465.515625 310.785156 460.792969 308.945312 450.515625 308.945312 L 423.296875 335.296875 L 423.296875 297.753906 L 398.855469 297.753906 C 396.632812 297.753906 396.078125 298.320312 396.078125 300.585938 "/>
<path fill-rule="evenodd" fill="rgb(0%, 0%, 0%)" fill-opacity="1" d="M 534.394531 364.480469 C 534.394531 346.632812 549.671875 332.605469 570.222656 338.128906 C 578.835938 340.539062 588 351.023438 588 360.800781 L 588 389.984375 C 567.722656 389.984375 546.058594 394.09375 537.171875 374.964844 C 536.339844 373.125 534.394531 367.03125 534.394531 364.480469 Z M 587.867188 415.304688 L 587.867188 418.460938 L 616.328125 418.460938 L 616.328125 364.480469 C 616.328125 334.730469 591.332031 308.945312 564.390625 308.945312 C 546.894531 308.945312 534.394531 313.195312 522.730469 324.8125 C 515.230469 332.179688 506.898438 346.207031 506.898438 360.800781 C 506.898438 384.460938 517.453125 402.453125 538.839844 412.9375 C 544.117188 415.484375 553.558594 418.035156 560.78125 418.179688 L 587.722656 391.683594 C 587.875 395.183594 587.898438 398.226562 587.867188 400.882812 Z M 587.867188 415.304688 "/>
<path fill-rule="evenodd" fill="rgb(0%, 0%, 0%)" fill-opacity="1" d="M 342.195312 241.222656 C 342.195312 217.988281 371.359375 205.804688 388.300781 222.664062 C 399.132812 233.429688 396.078125 249.15625 396.078125 268.566406 C 379.96875 268.566406 361.359375 270.976562 351.363281 261.199219 C 346.363281 256.242188 342.195312 251 342.195312 241.222656 Z M 314.976562 236.546875 C 314.699219 246.039062 317.476562 266.726562 330.253906 279.617188 C 340.808594 290.101562 353.863281 295.769531 369.691406 295.769531 L 395.800781 269.273438 L 396.078125 295.769531 L 423.296875 295.769531 L 423.296875 237.398438 C 423.296875 223.65625 416.910156 214.585938 409.964844 205.519531 C 406.632812 200.84375 406.910156 202.261719 403.300781 199.144531 C 388.023438 186.253906 367.75 183.703125 348.585938 190.644531 C 342.195312 192.769531 333.863281 198.578125 326.921875 207.078125 C 320.808594 215.4375 314.976562 222.664062 314.976562 236.546875 "/>
<path fill-rule="evenodd" fill="rgb(0%, 0%, 0%)" fill-opacity="1" d="M 723.539062 311.777344 L 723.539062 418.1875 L 729.359375 418.1875 C 739.703125 418.242188 729.359375 418.1875 748.472656 418.1875 L 751.867188 418.1875 L 751.867188 371.140625 C 754.921875 369.015625 758.257812 365.472656 765.753906 365.472656 C 776.03125 365.472656 786.585938 375.25 786.585938 386.160156 L 786.585938 417.1875 L 814.917969 417.1875 C 814.917969 396.078125 817.414062 371.140625 802.417969 355.273438 C 799.585938 352.515625 796.753906 350.367188 794.585938 347.359375 L 816.738281 338.105469 L 805.90625 310.785156 L 793.710938 317.238281 C 792.867188 317.667969 792.0625 318.082031 791.308594 318.4375 C 784.640625 321.414062 754.921875 334.164062 751.867188 334.445312 L 751.867188 308.945312 L 723.539062 308.945312 Z M 723.539062 311.777344 "/>
<path fill-rule="evenodd" fill="rgb(0%, 0%, 0%)" fill-opacity="1" d="M 619.105469 356.972656 L 619.105469 418.539062 L 634.941406 418.539062 C 637.621094 418.628906 639.710938 418.664062 641.335938 418.539062 L 646 418.539062 L 646 369.714844 C 646.179688 359.714844 647.199219 350.351562 650.769531 345.496094 C 663.824219 328.355469 692.429688 336.429688 692.429688 359.808594 L 692.429688 418.179688 L 719.648438 418.179688 L 719.648438 356.125 C 719.648438 344.648438 712.707031 331.613281 705.484375 324.246094 C 701.320312 320.136719 697.707031 316.738281 692.152344 314.046875 C 657.992188 296.902344 619.105469 323.820312 619.105469 356.972656 "/>
<path fill-rule="evenodd" fill="rgb(0%, 0%, 0%)" fill-opacity="1" d="M 25.011719 236.105469 C 25.007812 250.289062 25.1875 259.375 33.347656 272.535156 C 40.011719 283.019531 49.453125 289.675781 61.121094 293.644531 C 92.503906 304.128906 127.777344 279.757812 127.777344 243.066406 L 127.777344 186.277344 L 107.511719 186.277344 C 106.777344 186.265625 106.105469 186.265625 105.488281 186.277344 L 99.449219 186.277344 L 99.449219 207.363281 C 99.449219 216.714844 100.558594 246.890625 97.78125 253.832031 C 91.117188 271.117188 63.898438 274.800781 55.011719 253.832031 C 51.414062 245.839844 53.042969 223.066406 53.308594 210.273438 Z M 25.011719 236.105469 "/>
<path fill-rule="evenodd" fill="rgb(0%, 0%, 0%)" fill-opacity="1" d="M 201.101562 214.871094 L 201.101562 295.769531 L 228.320312 295.769531 L 228.320312 214.871094 C 246.375 214.871094 241.097656 215.722656 261.929688 194.894531 C 263.59375 193.335938 264.429688 192.628906 265.816406 191.070312 C 268.039062 188.945312 268.039062 189.652344 268.871094 186.675781 L 178.328125 186.535156 C 175.273438 186.820312 174.996094 187.101562 174.71875 190.359375 L 174.71875 213.878906 L 201.101562 213.878906 Z M 201.101562 214.871094 "/>
<path fill-rule="evenodd" fill="rgb(0%, 0%, 0%)" fill-opacity="1" d="M 253.875 247.882812 L 253.875 296.398438 L 281.925781 296.398438 L 281.925781 240.230469 C 282.203125 232.722656 284.703125 229.320312 288.035156 224.648438 C 289.425781 222.945312 289.980469 222.238281 291.925781 220.820312 C 299.84375 214.972656 302.390625 214.871094 315.40625 214.871094 L 335.429688 193 C 312.207031 180.933594 287.382812 186.492188 269.148438 204.671875 C 264.429688 209.347656 260.539062 216.003906 257.761719 222.664062 C 254.984375 229.746094 253.875 238.390625 253.875 247.882812 "/>
<path fill-rule="evenodd" fill="rgb(0%, 0%, 0%)" fill-opacity="1" d="M 130.832031 202.828125 L 130.554688 253.40625 C 130.554688 260.207031 132.222656 265.167969 134.167969 269.558594 C 139.722656 282.167969 154.71875 295.769531 169.996094 295.769531 L 183.328125 295.769531 L 183.328125 268.566406 C 174.71875 268.566406 163.050781 270.125 158.609375 256.523438 C 156.941406 251.566406 157.773438 184.695312 157.773438 176.335938 Z M 130.832031 202.828125 "/>
</svg>
